<svg width="29" height="30" viewBox="0 0 29 30" fill="none" xmlns="http://www.w3.org/2000/svg">
<rect width="29" height="30" fill="#F5F5F5"/>
<g id="Bill History">
<g clip-path="url(#clip0_0_1)">
<rect x="-41" y="-242" width="390" height="844" rx="30.0094" fill="white"/>
<g id="Group 158">
<g id="Group 45">
<g id="Mask group">
<mask id="mask0_0_1" style="mask-type:alpha" maskUnits="userSpaceOnUse" x="-16" y="-15" width="61" height="60">
<rect id="Rectangle 67" x="-15.3848" y="-14.7109" width="59.5282" height="59.5282" rx="14.4311" fill="#6485FF"/>
</mask>
<g mask="url(#mask0_0_1)">
<rect id="istockphoto-1451821587-170667a 1" x="-39.9175" y="-14.7109" width="89.1119" height="59.5282" fill="#6485FF"/>
<rect id="download 1" x="-64.0894" y="-33.4717" width="132.405" height="88.0296" fill="#6485FF"/>
</g>
</g>
<g id="bx:file">
<path id="Vector" d="M24.0638 11.1283C24.0067 10.9977 23.9269 10.8784 23.828 10.7759L16.6125 3.56037C16.51 3.46149 16.3907 3.38168 16.2601 3.32466C16.2241 3.30782 16.1856 3.2982 16.1471 3.28497C16.0465 3.25073 15.9417 3.2301 15.8356 3.22364C15.8104 3.22124 15.7875 3.20801 15.7623 3.20801H7.34415C6.01769 3.20801 4.93896 4.28673 4.93896 5.61319V24.8546C4.93896 26.1811 6.01769 27.2598 7.34415 27.2598H21.7752C23.1017 27.2598 24.1804 26.1811 24.1804 24.8546V11.6261C24.1804 11.6009 24.1672 11.578 24.1648 11.5516C24.1589 11.4454 24.1383 11.3406 24.1034 11.2401C24.0914 11.2016 24.0806 11.1643 24.0638 11.1283ZM20.0748 10.4235H16.9649V7.31365L20.0748 10.4235ZM7.34415 24.8546V5.61319H14.5597V11.6261C14.5597 11.9451 14.6864 12.251 14.9119 12.4765C15.1374 12.702 15.4433 12.8287 15.7623 12.8287H21.7752L21.7776 24.8546H7.34415Z" fill="white"/>
<path id="Vector_2" d="M9.74951 15.2342H19.3702V17.6394H9.74951V15.2342ZM9.74951 20.0445H19.3702V22.4497H9.74951V20.0445ZM9.74951 10.4238H12.1547V12.829H9.74951V10.4238Z" fill="white"/>
</g>
</g>
</g>
</g>
</g>
<defs>
<clipPath id="clip0_0_1">
<rect x="-41" y="-242" width="390" height="844" rx="30.0094" fill="white"/>
</clipPath>
</defs>
</svg>
